<svg width="97" height="96" viewBox="0 0 97 96" fill="none" xmlns="http://www.w3.org/2000/svg">
<g filter="url(#filter0_b_215_3)">
<path d="M0 10.7329C0 4.80529 4.85535 0 10.8447 0H86.2671C92.1947 0 97 4.80529 97 10.7329V10.7329V85.2671C97 91.1947 92.1447 96 86.1553 96H10.8447C4.85535 96 0 91.1947 0 85.2671V10.7329Z" fill="#DEDEDE" fill-opacity="0.3"/>
</g>
<g filter="url(#filter1_b_215_3)">
<path d="M12 19.2733C12 14.7041 15.654 11 20.1615 11H76.8385C81.346 11 85 14.7041 85 19.2733V76.7267C85 81.2959 81.346 85 76.8385 85H20.1615C15.654 85 12 81.2959 12 76.7267V19.2733Z" fill="white"/>
</g>
<path d="M34.7591 24.08L34.9891 24.8C34.5558 25.0067 33.9924 25.11 33.2991 25.11C32.1124 25.11 31.2658 24.7367 30.7591 23.99C30.3124 23.3167 30.0891 22.47 30.0891 21.45C30.0891 21.05 30.1191 20.68 30.1791 20.34C30.2458 19.9934 30.3558 19.6634 30.5091 19.35C30.6624 19.03 30.8591 18.7567 31.0991 18.53C31.3391 18.3034 31.6424 18.1234 32.0091 17.99C32.3824 17.8567 32.8091 17.79 33.2891 17.79C33.9224 17.79 34.4258 17.8667 34.7991 18.02L34.9891 18.1L34.7591 18.82C34.3991 18.64 33.9358 18.55 33.3691 18.55C31.7891 18.55 30.9991 19.5167 30.9991 21.45C30.9991 23.3834 31.7891 24.35 33.3691 24.35C33.8758 24.35 34.2858 24.2834 34.5991 24.15L34.7591 24.08Z" fill="#1B365D"/>
<path d="M38.2473 21.93C38.5873 21.93 38.9873 21.9667 39.4473 22.04V21.31C39.4473 20.89 39.3306 20.5867 39.0973 20.4C38.8706 20.2067 38.5173 20.11 38.0373 20.11C37.484 20.11 37.024 20.19 36.6573 20.35L36.4673 20.43L36.2873 19.73C36.8273 19.4834 37.4506 19.36 38.1573 19.36C38.884 19.36 39.4273 19.52 39.7873 19.84C40.154 20.1534 40.3373 20.6467 40.3373 21.32V24.68L40.0673 24.8C39.9606 24.84 39.7106 24.9034 39.3173 24.99C38.9373 25.07 38.5473 25.11 38.1473 25.11C36.694 25.11 35.9673 24.5834 35.9673 23.53C35.9673 22.4634 36.7273 21.93 38.2473 21.93ZM38.1673 24.41C38.5473 24.41 38.9206 24.3667 39.2873 24.28L39.4473 24.24V22.73C39.0273 22.67 38.6473 22.64 38.3073 22.64C37.814 22.64 37.4473 22.7067 37.2073 22.84C36.974 22.9667 36.8573 23.2 36.8573 23.54C36.8573 23.86 36.964 24.0867 37.1773 24.22C37.3973 24.3467 37.7273 24.41 38.1673 24.41Z" fill="#1B365D"/>
<path d="M44.7628 19.47V20.2H43.0428V23.15C43.0428 23.5634 43.1128 23.87 43.2528 24.07C43.3994 24.2634 43.6428 24.36 43.9828 24.36C44.2161 24.36 44.4528 24.32 44.6928 24.24L44.8128 24.21L44.9328 24.91C44.6661 25.0434 44.3228 25.11 43.9028 25.11C42.7361 25.11 42.1528 24.4534 42.1528 23.14V20.2H41.4028V19.47H42.1528V18.02L43.0428 17.87V19.47H44.7628Z" fill="#1B365D"/>
<path d="M48.1594 21.93C48.4994 21.93 48.8994 21.9667 49.3594 22.04V21.31C49.3594 20.89 49.2427 20.5867 49.0094 20.4C48.7827 20.2067 48.4294 20.11 47.9494 20.11C47.3961 20.11 46.9361 20.19 46.5694 20.35L46.3794 20.43L46.1994 19.73C46.7394 19.4834 47.3627 19.36 48.0694 19.36C48.7961 19.36 49.3394 19.52 49.6994 19.84C50.0661 20.1534 50.2494 20.6467 50.2494 21.32V24.68L49.9794 24.8C49.8727 24.84 49.6227 24.9034 49.2294 24.99C48.8494 25.07 48.4594 25.11 48.0594 25.11C46.6061 25.11 45.8794 24.5834 45.8794 23.53C45.8794 22.4634 46.6394 21.93 48.1594 21.93ZM48.0794 24.41C48.4594 24.41 48.8327 24.3667 49.1994 24.28L49.3594 24.24V22.73C48.9394 22.67 48.5594 22.64 48.2194 22.64C47.7261 22.64 47.3594 22.7067 47.1194 22.84C46.8861 22.9667 46.7694 23.2 46.7694 23.54C46.7694 23.86 46.8761 24.0867 47.0894 24.22C47.3094 24.3467 47.6394 24.41 48.0794 24.41Z" fill="#1B365D"/>
<path d="M54.2049 19.44L54.1449 20.19C54.0115 20.1767 53.8615 20.17 53.6949 20.17C53.4082 20.17 53.0549 20.2234 52.6349 20.33V25H51.7449V19.8C52.2115 19.5334 52.8182 19.4 53.5649 19.4C53.8249 19.4 54.0382 19.4134 54.2049 19.44Z" fill="#1B365D"/>
<path d="M57.3489 21.93C57.6889 21.93 58.0889 21.9667 58.5489 22.04V21.31C58.5489 20.89 58.4322 20.5867 58.1989 20.4C57.9722 20.2067 57.6189 20.11 57.1389 20.11C56.5855 20.11 56.1255 20.19 55.7589 20.35L55.5689 20.43L55.3889 19.73C55.9289 19.4834 56.5522 19.36 57.2589 19.36C57.9855 19.36 58.5289 19.52 58.8889 19.84C59.2555 20.1534 59.4389 20.6467 59.4389 21.32V24.68L59.1689 24.8C59.0622 24.84 58.8122 24.9034 58.4189 24.99C58.0389 25.07 57.6489 25.11 57.2489 25.11C55.7955 25.11 55.0689 24.5834 55.0689 23.53C55.0689 22.4634 55.8289 21.93 57.3489 21.93ZM57.2689 24.41C57.6489 24.41 58.0222 24.3667 58.3889 24.28L58.5489 24.24V22.73C58.1289 22.67 57.7489 22.64 57.4089 22.64C56.9155 22.64 56.5489 22.7067 56.3089 22.84C56.0755 22.9667 55.9589 23.2 55.9589 23.54C55.9589 23.86 56.0655 24.0867 56.2789 24.22C56.4989 24.3467 56.8289 24.41 57.2689 24.41Z" fill="#1B365D"/>
<path d="M64.6243 19.61L64.4343 20.3C64.0943 20.1734 63.7143 20.11 63.2943 20.11C62.741 20.11 62.321 20.27 62.0343 20.59C61.9277 20.7167 61.8377 20.8867 61.7643 21.1C61.671 21.4134 61.6243 21.7867 61.6243 22.22C61.6243 22.7867 61.7143 23.2634 61.8943 23.65C62.1143 24.1234 62.5877 24.36 63.3143 24.36C63.7543 24.36 64.1277 24.2934 64.4343 24.16L64.6243 24.86C64.2977 25.0267 63.841 25.11 63.2543 25.11C61.5743 25.11 60.7343 24.15 60.7343 22.23C60.7343 20.3167 61.5743 19.36 63.2543 19.36C63.781 19.36 64.1877 19.42 64.4743 19.54L64.6243 19.61Z" fill="#1B365D"/>
<path d="M68.8643 19.47V20.2H67.1443V23.15C67.1443 23.5634 67.2143 23.87 67.3543 24.07C67.501 24.2634 67.7443 24.36 68.0843 24.36C68.3177 24.36 68.5543 24.32 68.7943 24.24L68.9143 24.21L69.0343 24.91C68.7677 25.0434 68.4243 25.11 68.0043 25.11C66.8377 25.11 66.2543 24.4534 66.2543 23.14V20.2H65.5043V19.47H66.2543V18.02L67.1443 17.87V19.47H68.8643Z" fill="#1B365D"/>
<path d="M23.2256 31.712C23.2256 31.952 23.3296 32.176 23.5376 32.384C23.6256 32.448 23.7616 32.52 23.9456 32.6C23.9696 32.608 24.1176 32.664 24.3896 32.768L24.9536 32.936C25.5296 33.104 26.0096 33.292 26.3936 33.5C26.7696 33.7 27.0496 33.964 27.2336 34.292C27.4256 34.62 27.5376 35.052 27.5696 35.588C27.5696 36.404 27.2776 37.036 26.6936 37.484C26.1096 37.924 25.2856 38.144 24.2216 38.144C23.7976 38.144 23.3656 38.104 22.9256 38.024C22.4936 37.952 22.1696 37.872 21.9536 37.784L21.6536 37.664L22.0136 36.356C22.6696 36.636 23.3936 36.776 24.1856 36.776C25.3136 36.776 25.8776 36.42 25.8776 35.708C25.8776 35.404 25.7576 35.156 25.5176 34.964C25.4376 34.884 25.2896 34.8 25.0736 34.712C24.9056 34.64 24.7456 34.58 24.5936 34.532L24.0176 34.364C23.3696 34.18 22.8176 33.92 22.3616 33.584C21.8416 33.176 21.5816 32.588 21.5816 31.82C21.5816 30.956 21.8736 30.328 22.4576 29.936C23.0496 29.536 23.8336 29.336 24.8096 29.336C25.6576 29.336 26.3816 29.448 26.9816 29.672L27.2696 29.792L26.9096 31.04C26.3816 30.816 25.7256 30.704 24.9416 30.704C23.7976 30.704 23.2256 31.04 23.2256 31.712Z" fill="#1B365D"/>
<path d="M33.686 31.556L33.374 32.804C33.014 32.644 32.59 32.564 32.102 32.564C31.422 32.564 30.962 32.788 30.722 33.236C30.53 33.628 30.434 34.104 30.434 34.664C30.434 35.28 30.534 35.776 30.734 36.152C30.982 36.584 31.442 36.8 32.114 36.8C32.602 36.8 33.022 36.716 33.374 36.548L33.686 37.808C33.27 38.032 32.686 38.144 31.934 38.144C29.83 38.144 28.778 36.988 28.778 34.676C28.778 32.372 29.83 31.22 31.934 31.22C32.598 31.22 33.118 31.304 33.494 31.472L33.686 31.556Z" fill="#1B365D"/>
<path d="M38.4361 31.292L38.3401 32.66C38.2921 32.652 38.1521 32.648 37.9201 32.648C37.5441 32.648 37.1521 32.704 36.7441 32.816V38H35.0881V31.784C35.7761 31.424 36.6281 31.244 37.6441 31.244C37.9721 31.244 38.2361 31.26 38.4361 31.292Z" fill="#1B365D"/>
<path d="M44.8689 35.096H40.9809C40.9809 35.616 41.1169 36.036 41.3889 36.356C41.6689 36.668 42.1049 36.824 42.6969 36.824C43.2889 36.824 43.8009 36.752 44.2329 36.608L44.4609 36.536L44.6649 37.784C44.0729 38.024 43.3609 38.144 42.5289 38.144C40.3929 38.144 39.3249 36.988 39.3249 34.676C39.3249 33.644 39.5649 32.808 40.0449 32.168C40.5329 31.536 41.2769 31.22 42.2769 31.22C43.1969 31.22 43.8809 31.464 44.3289 31.952C44.7769 32.432 45.0009 33.096 45.0009 33.944C45.0009 34.272 44.9569 34.656 44.8689 35.096ZM40.9929 34.016H43.4289V33.848C43.4289 33.408 43.3409 33.076 43.1649 32.852C42.9969 32.62 42.7009 32.504 42.2769 32.504C41.4849 32.504 41.0569 33.008 40.9929 34.016Z" fill="#1B365D"/>
<path d="M51.7361 35.096H47.8481C47.8481 35.616 47.9841 36.036 48.2561 36.356C48.5361 36.668 48.9721 36.824 49.5641 36.824C50.1561 36.824 50.6681 36.752 51.1001 36.608L51.3281 36.536L51.5321 37.784C50.9401 38.024 50.2281 38.144 49.3961 38.144C47.2601 38.144 46.1921 36.988 46.1921 34.676C46.1921 33.644 46.4321 32.808 46.9121 32.168C47.4001 31.536 48.1441 31.22 49.1441 31.22C50.0641 31.22 50.7481 31.464 51.1961 31.952C51.6441 32.432 51.8681 33.096 51.8681 33.944C51.8681 34.272 51.8241 34.656 51.7361 35.096ZM47.8601 34.016H50.2961V33.848C50.2961 33.408 50.2081 33.076 50.0321 32.852C49.8641 32.62 49.5681 32.504 49.1441 32.504C48.3521 32.504 47.9241 33.008 47.8601 34.016Z" fill="#1B365D"/>
<path d="M59.0953 38H57.4513V33.812C57.4513 33.332 57.3393 33.004 57.1153 32.828C56.8913 32.644 56.5513 32.552 56.0953 32.552C55.7193 32.552 55.3833 32.592 55.0873 32.672L54.9433 32.72V38H53.2873V31.772L53.6713 31.628C53.8393 31.572 54.1753 31.488 54.6793 31.376C55.1753 31.272 55.6793 31.22 56.1913 31.22C57.1993 31.22 57.9353 31.432 58.3993 31.856C58.8633 32.28 59.0953 32.988 59.0953 33.98V38Z" fill="#1B365D"/>
<path d="M60.717 31.364H62.373V38H60.717V31.364ZM61.557 28.784C61.845 28.784 62.073 28.86 62.241 29.012C62.409 29.164 62.493 29.372 62.493 29.636C62.493 29.916 62.409 30.132 62.241 30.284C62.081 30.428 61.853 30.5 61.557 30.5C61.261 30.5 61.029 30.428 60.861 30.284C60.693 30.132 60.609 29.916 60.609 29.636C60.609 29.364 60.693 29.156 60.861 29.012C61.029 28.86 61.261 28.784 61.557 28.784Z" fill="#1B365D"/>
<path d="M69.8648 38H68.2208V33.812C68.2208 33.332 68.1088 33.004 67.8848 32.828C67.6608 32.644 67.3208 32.552 66.8648 32.552C66.4888 32.552 66.1528 32.592 65.8568 32.672L65.7128 32.72V38H64.0568V31.772L64.4408 31.628C64.6088 31.572 64.9448 31.488 65.4488 31.376C65.9448 31.272 66.4488 31.22 66.9608 31.22C67.9688 31.22 68.7048 31.432 69.1688 31.856C69.6328 32.28 69.8648 32.988 69.8648 33.98V38Z" fill="#1B365D"/>
<path d="M71.2585 34.688C71.2585 33.52 71.5145 32.652 72.0265 32.084C72.5385 31.508 73.3425 31.22 74.4385 31.22C74.9025 31.22 75.3545 31.268 75.7945 31.364C76.2265 31.444 76.5585 31.536 76.7905 31.64L77.1265 31.772V37.412C77.1265 39.564 76.0665 40.64 73.9465 40.64C73.2425 40.64 72.6785 40.56 72.2545 40.4L72.0265 40.328L72.2305 39.056C72.6625 39.232 73.1865 39.32 73.8025 39.32C74.9465 39.32 75.5385 38.852 75.5785 37.916C75.2585 38.02 74.8345 38.072 74.3065 38.072C72.2745 38.072 71.2585 36.944 71.2585 34.688ZM72.9145 34.688C72.9145 35.408 73.0265 35.936 73.2505 36.272C73.4825 36.608 73.8785 36.776 74.4385 36.776C74.8145 36.776 75.1585 36.732 75.4705 36.644V32.708C75.2065 32.604 74.8625 32.552 74.4385 32.552C73.8785 32.552 73.4825 32.728 73.2505 33.08C73.0265 33.424 72.9145 33.96 72.9145 34.688Z" fill="#1B365D"/>
<path d="M31.2137 75.4499L31.6137 76.7899C31.207 77.0166 30.6104 77.1299 29.8237 77.1299C28.657 77.1299 27.8037 76.7999 27.2637 76.1399C26.7304 75.4799 26.4637 74.5833 26.4637 73.4499C26.4637 72.3233 26.7304 71.4266 27.2637 70.7599C27.7904 70.0999 28.6404 69.7699 29.8137 69.7699C30.507 69.7699 31.0437 69.8533 31.4237 70.0199L31.6137 70.1099L31.2137 71.4499C30.9337 71.3166 30.5437 71.2499 30.0437 71.2499C29.4037 71.2499 28.9437 71.4366 28.6637 71.8099C28.3904 72.1766 28.2537 72.7233 28.2537 73.4499C28.2537 74.1766 28.3904 74.7266 28.6637 75.0999C28.9437 75.4666 29.4037 75.6499 30.0437 75.6499C30.5037 75.6499 30.8537 75.5999 31.0937 75.4999L31.2137 75.4499Z" fill="#0054A6"/>
<path d="M32.6207 69.3999H34.3507V76.9999H32.6207V69.3999Z" fill="#0054A6"/>
<path d="M35.6383 71.4699H37.3683V76.9999H35.6383V71.4699ZM35.5583 70.0299C35.5583 69.7566 35.6416 69.5466 35.8083 69.3999C35.975 69.2533 36.205 69.1799 36.4983 69.1799C36.7916 69.1799 37.0216 69.2533 37.1883 69.3999C37.3616 69.5533 37.4483 69.7633 37.4483 70.0299C37.4483 70.2966 37.3616 70.5066 37.1883 70.6599C37.0216 70.8066 36.7916 70.8799 36.4983 70.8799C36.205 70.8799 35.975 70.8066 35.8083 70.6599C35.6416 70.5133 35.5583 70.3033 35.5583 70.0299Z" fill="#0054A6"/>
<path d="M42.7059 71.6399L42.3859 72.9299C42.0659 72.7966 41.7325 72.7299 41.3859 72.7299C40.9592 72.7299 40.6525 72.8566 40.4659 73.1099C40.2859 73.3633 40.1959 73.7366 40.1959 74.2299C40.1959 74.7299 40.2892 75.1066 40.4759 75.3599C40.6625 75.6133 40.9659 75.7399 41.3859 75.7399C41.7459 75.7399 42.0792 75.6699 42.3859 75.5299L42.7059 76.8299C42.3325 77.0299 41.8225 77.1299 41.1759 77.1299C39.3692 77.1299 38.4659 76.1633 38.4659 74.2299C38.4659 72.3033 39.3692 71.3399 41.1759 71.3399C41.7159 71.3399 42.1725 71.4133 42.5459 71.5599L42.7059 71.6399Z" fill="#0054A6"/>
<path d="M45.4933 73.8399L47.0633 71.4699H48.9433L47.1333 74.1599L48.0033 75.3199C48.23 75.6066 48.4533 75.7499 48.6733 75.7499L48.9133 75.7199V76.9599C48.7266 77.0599 48.4766 77.1099 48.1633 77.1099C47.5566 77.1099 47.0133 76.7899 46.5333 76.1499L45.4933 74.7699V76.9999H43.7633V69.3999H45.4933V73.8399Z" fill="#0054A6"/>
<path d="M51.9176 76.9999V69.3999H53.6476V71.4199C53.9876 71.3666 54.2876 71.3399 54.5476 71.3399C55.3609 71.3399 55.9609 71.5133 56.3476 71.8599C56.7476 72.2066 56.9476 72.8133 56.9476 73.6799V76.9999H55.2176V73.4899C55.2176 73.2033 55.1476 73.0033 55.0076 72.8899C54.8676 72.7699 54.6576 72.7099 54.3776 72.7099C54.1376 72.7099 53.9243 72.7333 53.7376 72.7799L53.6476 72.8099V76.9999H51.9176Z" fill="#0054A6"/>
<path d="M62.7574 74.7099H59.7174C59.724 75.0366 59.8274 75.2966 60.0274 75.4899C60.234 75.6766 60.544 75.7699 60.9574 75.7699C61.3974 75.7699 61.8074 75.7166 62.1874 75.6099L62.3874 75.5599L62.5974 76.8299C62.0774 77.0299 61.4707 77.1299 60.7774 77.1299C59.864 77.1299 59.1707 76.8899 58.6974 76.4099C58.224 75.9233 57.9874 75.1966 57.9874 74.2299C57.9874 73.3633 58.1974 72.6666 58.6174 72.1399C59.0507 71.6066 59.6907 71.3399 60.5374 71.3399C61.3174 71.3399 61.9007 71.5466 62.2874 71.9599C62.6807 72.3733 62.8774 72.9433 62.8774 73.6699C62.8774 74.0099 62.8374 74.3566 62.7574 74.7099ZM59.7174 73.6399H61.2574C61.2574 73.4333 61.244 73.2699 61.2174 73.1499C61.1907 73.0233 61.1207 72.9099 61.0074 72.8099C60.9007 72.7099 60.7407 72.6599 60.5274 72.6599C60.0207 72.6599 59.7507 72.9866 59.7174 73.6399Z" fill="#0054A6"/>
<path d="M66.9884 71.3899L66.8984 72.8099C66.8784 72.8033 66.7817 72.7999 66.6084 72.7999C66.215 72.7999 65.9117 72.8433 65.6984 72.9299V76.9999H63.9684V71.8299C64.6484 71.5099 65.4317 71.3499 66.3184 71.3499C66.5784 71.3499 66.8017 71.3633 66.9884 71.3899Z" fill="#0054A6"/>
<path d="M72.4253 74.7099H69.3853C69.392 75.0366 69.4953 75.2966 69.6953 75.4899C69.902 75.6766 70.212 75.7699 70.6253 75.7699C71.0653 75.7699 71.4753 75.7166 71.8553 75.6099L72.0553 75.5599L72.2653 76.8299C71.7453 77.0299 71.1387 77.1299 70.4453 77.1299C69.532 77.1299 68.8387 76.8899 68.3653 76.4099C67.892 75.9233 67.6553 75.1966 67.6553 74.2299C67.6553 73.3633 67.8653 72.6666 68.2853 72.1399C68.7187 71.6066 69.3587 71.3399 70.2053 71.3399C70.9853 71.3399 71.5687 71.5466 71.9553 71.9599C72.3487 72.3733 72.5453 72.9433 72.5453 73.6699C72.5453 74.0099 72.5053 74.3566 72.4253 74.7099ZM69.3853 73.6399H70.9253C70.9253 73.4333 70.912 73.2699 70.8853 73.1499C70.8587 73.0233 70.7887 72.9099 70.6753 72.8099C70.5687 72.7099 70.4087 72.6599 70.1953 72.6599C69.6887 72.6599 69.4187 72.9866 69.3853 73.6399Z" fill="#0054A6"/>
<defs>
<filter id="filter0_b_215_3" x="-6" y="-6" width="109" height="108" filterUnits="userSpaceOnUse" color-interpolation-filters="sRGB">
<feFlood flood-opacity="0" result="BackgroundImageFix"/>
<feGaussianBlur in="BackgroundImage" stdDeviation="3"/>
<feComposite in2="SourceAlpha" operator="in" result="effect1_backgroundBlur_215_3"/>
<feBlend mode="normal" in="SourceGraphic" in2="effect1_backgroundBlur_215_3" result="shape"/>
</filter>
<filter id="filter1_b_215_3" x="8" y="7" width="81" height="82" filterUnits="userSpaceOnUse" color-interpolation-filters="sRGB">
<feFlood flood-opacity="0" result="BackgroundImageFix"/>
<feGaussianBlur in="BackgroundImage" stdDeviation="2"/>
<feComposite in2="SourceAlpha" operator="in" result="effect1_backgroundBlur_215_3"/>
<feBlend mode="normal" in="SourceGraphic" in2="effect1_backgroundBlur_215_3" result="shape"/>
</filter>
</defs>
</svg>
