<svg width="27" height="31" viewBox="0 0 27 31" fill="none" xmlns="http://www.w3.org/2000/svg">
<g filter="url(#filter0_d_219_3)">
<path d="M11.3118 0C10.0194 0.00150525 8.78026 0.515603 7.86635 1.42952C6.95243 2.34343 6.43833 3.58253 6.43683 4.875H8.06183C8.06183 4.01305 8.40424 3.1864 9.01373 2.5769C9.62322 1.96741 10.4499 1.625 11.3118 1.625C12.1738 1.625 13.0004 1.96741 13.6099 2.5769C14.2194 3.1864 14.5618 4.01305 14.5618 4.875H16.1868C16.1853 3.58253 15.6712 2.34343 14.7573 1.42952C13.8434 0.515603 12.6043 0.00150525 11.3118 0V0Z" fill="#006AB7"/>
</g>
<g filter="url(#filter1_d_219_3)">
<path d="M17.8118 22.75H14.2043C13.3892 22.7498 12.6039 22.4433 12.0041 21.8912L4.52909 15.0126C4.35456 14.853 4.21692 14.6573 4.12575 14.4391C4.03459 14.221 3.99209 13.9855 4.00121 13.7492C4.01034 13.5129 4.07087 13.2815 4.1786 13.071C4.28633 12.8605 4.43865 12.676 4.62497 12.5304C4.94416 12.2965 5.33547 12.1824 5.73033 12.2081C6.12518 12.2338 6.4984 12.3977 6.78459 12.6709L9.68684 15.3213V4.875C9.68684 4.44402 9.85805 4.0307 10.1628 3.72595C10.4675 3.4212 10.8809 3.25 11.3118 3.25C11.7428 3.25 12.1561 3.4212 12.4609 3.72595C12.7656 4.0307 12.9368 4.44402 12.9368 4.875V10.5625C12.9368 10.1315 13.108 9.7182 13.4128 9.41345C13.7175 9.10871 14.1309 8.9375 14.5618 8.9375C14.9928 8.9375 15.4061 9.10871 15.7109 9.41345C16.0156 9.7182 16.1868 10.1315 16.1868 10.5625V11.375C16.1868 10.944 16.358 10.5307 16.6628 10.226C16.9675 9.92121 17.3809 9.75 17.8118 9.75C18.2428 9.75 18.6561 9.92121 18.9609 10.226C19.2656 10.5307 19.4368 10.944 19.4368 11.375V12.1875C19.4368 11.7565 19.608 11.3432 19.9128 11.0385C20.2175 10.7337 20.6309 10.5625 21.0618 10.5625C21.4928 10.5625 21.9061 10.7337 22.2109 11.0385C22.5156 11.3432 22.6868 11.7565 22.6868 12.1875V17.875C22.6868 19.1679 22.1732 20.4079 21.259 21.3221C20.3447 22.2364 19.1048 22.75 17.8118 22.75Z" fill="#006AB7"/>
</g>
<defs>
<filter id="filter0_d_219_3" x="2.43683" y="0" width="17.75" height="12.875" filterUnits="userSpaceOnUse" color-interpolation-filters="sRGB">
<feFlood flood-opacity="0" result="BackgroundImageFix"/>
<feColorMatrix in="SourceAlpha" type="matrix" values="0 0 0 0 0 0 0 0 0 0 0 0 0 0 0 0 0 0 127 0" result="hardAlpha"/>
<feOffset dy="4"/>
<feGaussianBlur stdDeviation="2"/>
<feComposite in2="hardAlpha" operator="out"/>
<feColorMatrix type="matrix" values="0 0 0 0 1 0 0 0 0 1 0 0 0 0 1 0 0 0 0.35 0"/>
<feBlend mode="normal" in2="BackgroundImageFix" result="effect1_dropShadow_219_3"/>
<feBlend mode="normal" in="SourceGraphic" in2="effect1_dropShadow_219_3" result="shape"/>
</filter>
<filter id="filter1_d_219_3" x="0" y="3.25" width="26.6868" height="27.5" filterUnits="userSpaceOnUse" color-interpolation-filters="sRGB">
<feFlood flood-opacity="0" result="BackgroundImageFix"/>
<feColorMatrix in="SourceAlpha" type="matrix" values="0 0 0 0 0 0 0 0 0 0 0 0 0 0 0 0 0 0 127 0" result="hardAlpha"/>
<feOffset dy="4"/>
<feGaussianBlur stdDeviation="2"/>
<feComposite in2="hardAlpha" operator="out"/>
<feColorMatrix type="matrix" values="0 0 0 0 1 0 0 0 0 1 0 0 0 0 1 0 0 0 0.35 0"/>
<feBlend mode="normal" in2="BackgroundImageFix" result="effect1_dropShadow_219_3"/>
<feBlend mode="normal" in="SourceGraphic" in2="effect1_dropShadow_219_3" result="shape"/>
</filter>
</defs>
</svg>
